<?xml version="1.0" standalone="no"?>
<!DOCTYPE svg PUBLIC "-//W3C//DTD SVG 20010904//EN"
 "http://www.w3.org/TR/2001/REC-SVG-20010904/DTD/svg10.dtd">
<svg version="1.0" xmlns="http://www.w3.org/2000/svg"
 width="260.000000pt" height="260.000000pt" viewBox="0 0 260.000000 260.000000"
 preserveAspectRatio="xMidYMid meet">
<metadata>
Created by potrace 1.14, written by Peter Selinger 2001-2017
</metadata>
<g transform="translate(0.000000,260.000000) scale(0.100000,-0.100000)"
fill="#000000" stroke="none">
<path d="M1268 2163 c-15 -35 -26 -43 -57 -43 -27 0 -117 -57 -126 -79 -4 -11
0 -10 14 3 14 13 24 15 38 8 10 -5 27 -6 38 -1 11 4 40 8 66 8 25 1 49 5 55
10 5 5 38 12 74 16 82 7 120 15 120 23 0 4 17 8 38 9 101 4 202 17 202 25 0 6
8 7 18 3 14 -5 15 -4 4 7 -9 9 -45 13 -110 14 -138 2 -328 13 -346 20 -11 4
-20 -3 -28 -23z"/>
<path d="M409 2047 c-27 -24 -40 -47 -63 -113 -14 -41 -14 -42 13 -68 25 -24
34 -26 74 -21 39 6 47 3 60 -16 11 -15 13 -27 7 -39 -8 -15 -2 -18 45 -23 43
-4 76 -18 149 -62 116 -69 156 -75 290 -44 113 26 174 51 250 103 59 39 186
159 186 176 0 4 -26 0 -57 -9 -32 -10 -61 -18 -66 -19 -13 -3 -71 -34 -93 -51
-12 -9 -32 -23 -44 -31 -12 -8 -29 -21 -36 -28 -8 -7 -14 -11 -14 -8 0 3 -12
1 -26 -4 -18 -7 -48 -7 -92 1 -79 14 -89 18 -159 75 -58 47 -81 52 -136 29
-27 -11 -37 -12 -45 -2 -10 13 0 51 17 61 6 4 2 16 -10 30 -12 14 -20 28 -20
33 1 4 -11 11 -26 15 -15 3 -46 13 -68 22 -58 22 -105 20 -136 -7z"/>
<path d="M1388 1859 c-145 -146 -247 -202 -423 -234 l-70 -12 110 -1 c61 -1
130 3 154 9 24 5 55 11 70 13 39 5 191 66 191 77 0 5 7 9 14 9 22 0 104 58
154 107 70 70 55 132 -36 141 l-51 4 -113 -113z"/>
<path d="M465 1726 c-39 -17 -85 -71 -85 -100 0 -12 8 -33 17 -46 19 -28 64
-70 72 -67 3 0 20 -6 36 -15 17 -8 46 -19 65 -23 19 -4 47 -14 62 -21 14 -7
44 -16 67 -19 22 -2 59 -9 83 -15 50 -11 309 -26 329 -18 10 4 13 20 11 56
l-4 51 -56 11 c-32 7 -65 16 -74 21 -10 5 -24 9 -32 9 -23 0 -169 64 -242 106
-153 89 -185 98 -249 70z"/>
<path d="M283 1634 c-9 -4 -9 -11 -1 -30 14 -31 30 -31 18 0 -5 13 -6 27 -3
30 7 7 3 7 -14 0z"/>
<path d="M1515 1632 c-42 -9 -66 -22 -60 -32 5 -8 11 -8 19 -1 7 6 28 11 47
13 31 2 89 28 62 28 -7 0 -15 -5 -18 -10 -4 -7 -12 -7 -18 -2 -7 5 -21 6 -32
4z"/>
<path d="M1730 1616 c0 -2 7 -6 15 -10 8 -3 15 -1 15 4 0 6 -7 10 -15 10 -8 0
-15 -2 -15 -4z"/>
<path d="M1680 1600 c-18 -12 -2 -12 25 0 13 6 15 9 5 9 -8 0 -22 -4 -30 -9z"/>
<path d="M1830 1586 c0 -2 7 -9 15 -16 9 -7 15 -8 15 -2 0 5 -7 12 -15 16 -8
3 -15 4 -15 2z"/>
<path d="M1148 1563 c7 -3 16 -2 19 1 4 3 -2 6 -13 5 -11 0 -14 -3 -6 -6z"/>
<path d="M1278 1563 c7 -3 16 -2 19 1 4 3 -2 6 -13 5 -11 0 -14 -3 -6 -6z"/>
<path d="M1690 1559 c0 -7 -7 -17 -16 -24 -15 -11 -15 -12 4 -17 15 -4 23 0
27 13 4 12 16 19 33 20 24 0 25 1 7 9 -29 12 -55 12 -55 -1z"/>
<path d="M1514 1539 c-5 -9 1 -10 20 -5 18 4 25 3 21 -4 -3 -5 -17 -10 -31
-10 -13 0 -24 -4 -24 -9 0 -13 41 -1 62 17 12 10 28 13 48 8 19 -3 29 -2 25 4
-9 14 -112 13 -121 -1z"/>
<path d="M1964 1541 c-5 -5 -18 -11 -29 -14 -15 -4 -14 -5 7 -6 15 0 30 4 33
10 9 14 1 21 -11 10z"/>
<path d="M1359 1502 c-5 -27 -5 -52 -1 -52 13 0 72 24 72 30 -1 20 -68 42 -71
22z"/>
<path d="M1318 1493 c7 -3 16 -2 19 1 4 3 -2 6 -13 5 -11 0 -14 -3 -6 -6z"/>
<path d="M430 1470 c0 -11 4 -20 8 -20 4 0 8 9 9 20 1 11 -2 20 -8 20 -5 0 -9
-9 -9 -20z"/>
<path d="M1203 1468 c-21 -10 -30 -37 -18 -50 7 -6 101 14 111 24 4 4 1 14 -6
23 -14 17 -55 19 -87 3z"/>
<path d="M435 1401 c-3 -5 -2 -12 3 -15 5 -3 9 1 9 9 0 17 -3 19 -12 6z"/>
<path d="M1227 1310 c-97 -25 -173 -93 -203 -183 -29 -87 -5 -186 61 -250 44
-44 63 -58 83 -62 9 -2 33 -9 52 -14 51 -16 125 -13 194 6 193 54 248 300 98
435 -42 38 -82 63 -82 52 0 -3 -6 -2 -13 5 -19 15 -144 22 -190 11z m137 -95
c37 -6 114 -68 117 -94 2 -11 5 -26 9 -38 1 -5 2 -11 2 -14 -1 -4 -2 -23 -4
-43 -1 -20 -6 -36 -11 -36 -4 0 -6 -4 -2 -9 3 -5 -11 -26 -31 -45 -26 -26 -51
-38 -91 -46 -168 -35 -283 105 -207 251 15 29 88 83 102 76 4 -3 16 -1 27 3
11 5 27 7 35 5 8 -2 32 -6 54 -10z"/>
<path d="M589 1294 c-11 -13 -14 -66 -15 -233 0 -119 4 -224 8 -234 8 -16 25
-17 180 -15 167 3 171 3 179 26 6 17 4 27 -11 42 -18 18 -34 20 -140 20 l-120
0 0 195 c0 182 -1 195 -19 205 -28 14 -46 13 -62 -6z"/>
<path d="M1848 1293 c-19 -23 -121 -200 -191 -333 -58 -110 -62 -141 -20 -152
30 -8 54 6 83 47 l27 39 143 1 143 0 20 -43 c20 -41 23 -43 61 -40 53 4 67 27
42 71 -10 17 -36 66 -58 107 -23 41 -52 95 -66 120 -13 25 -40 74 -60 110 -19
36 -39 71 -44 78 -15 18 -63 15 -80 -5z m52 -143 c0 -18 3 -25 24 -60 27 -44
48 -91 43 -97 -3 -2 -43 -3 -89 -1 l-85 3 45 83 c41 75 62 99 62 72z"/>
<path d="M2106 1294 c-19 -18 -20 -28 -6 -55 9 -16 22 -19 95 -19 l85 0 0
-194 c0 -164 3 -197 16 -210 19 -20 43 -20 70 -1 20 13 21 23 22 197 0 101 1
189 1 196 1 8 24 12 79 12 82 0 102 9 102 45 0 42 -13 45 -236 45 -180 0 -215
-2 -228 -16z"/>
<path d="M62 1288 c-17 -17 -17 -459 0 -476 17 -17 63 -15 79 5 9 10 14 42 14
92 l0 76 111 5 c114 5 144 15 144 50 0 9 -9 25 -21 36 -18 16 -37 19 -127 20
l-107 0 0 55 0 54 132 5 c72 3 134 8 137 11 3 3 9 19 12 36 5 26 2 31 -18 36
-44 12 -343 8 -356 -5z"/>
</g>
</svg>
